HIERARCHY
ROOT Hips
{
	OFFSET 0.000000 0.000000 0.000000
	CHANNELS 6 Xposition Yposition Zposition Zrotation Yrotation Xrotation 
	JOINT LHipJoint
	{
		OFFSET 0.000000 0.000000 0.000000
		CHANNELS 3 Zrotation Yrotation Xrotation
		JOINT LeftUpLeg
		{
			OFFSET 1.363060 -1.794630 0.839290
			CHANNELS 3 Zrotation Yrotation Xrotation
			JOINT LeftLeg
			{
				OFFSET 2.448110 -6.726130 0.000000
				CHANNELS 3 Zrotation Yrotation Xrotation
				JOINT LeftFoot
				{
					OFFSET 2.562200 -7.039590 0.000000
					CHANNELS 3 Zrotation Yrotation Xrotation
					JOINT LeftToeBase
					{
						OFFSET 0.157640 -0.433110 2.322550
						CHANNELS 3 Zrotation Yrotation Xrotation
						End Site
						{
							OFFSET 0.000000 0.000000 0.000000
						}
					}
				}
			}
		}
	}
	JOINT RHipJoint
	{
		OFFSET 0.000000 0.000000 0.000000
		CHANNELS 3 Zrotation Yrotation Xrotation
		JOINT RightUpLeg
		{
			OFFSET -1.305520 -1.794630 0.839290
			CHANNELS 3 Zrotation Yrotation Xrotation
			JOINT RightLeg
			{
				OFFSET -2.542530 -6.985550 0.000000
				CHANNELS 3 Zrotation Yrotation Xrotation
				JOINT RightFoot
				{
					OFFSET -2.568260 -7.056230 0.000000
					CHANNELS 3 Zrotation Yrotation Xrotation
					JOINT RightToeBase
					{
						OFFSET -0.164730 -0.452590 2.363150
						CHANNELS 3 Zrotation Yrotation Xrotation
						End Site
						{
							OFFSET 0.000000 0.000000 0.000000
						}
					}
				}
			}
		}
	}
	JOINT LowerBack
	{
		OFFSET 0.000000 0.000000 0.000000
		CHANNELS 3 Zrotation Yrotation Xrotation
		JOINT Spine
		{
			OFFSET 0.028270 2.035590 -0.193380
			CHANNELS 3 Zrotation Yrotation Xrotation
			JOINT Spine1
			{
				OFFSET 0.056720 2.048850 -0.042750
				CHANNELS 3 Zrotation Yrotation Xrotation
				JOINT Neck
				{
					OFFSET 0.000000 0.000000 0.000000
					CHANNELS 3 Zrotation Yrotation Xrotation
					JOINT Neck1
					{
						OFFSET -0.054170 1.746240 0.172020
						CHANNELS 3 Zrotation Yrotation Xrotation
						JOINT Head
						{
							OFFSET 0.104070 1.761360 -0.123970
							CHANNELS 3 Zrotation Yrotation Xrotation
							End Site
							{
								OFFSET 0.000000 0.000000 0.000000
							}
						}
					}
				}
				JOINT LeftShoulder
				{
					OFFSET 0.000000 0.000000 0.000000
					CHANNELS 3 Zrotation Yrotation Xrotation
					JOINT LeftArm
					{
						OFFSET 3.362410 1.200890 -0.311210
						CHANNELS 3 Zrotation Yrotation Xrotation
						JOINT LeftForeArm
						{
							OFFSET 4.983000 -0.000000 -0.000000
							CHANNELS 3 Zrotation Yrotation Xrotation
							JOINT LeftHand
							{
								OFFSET 3.483560 -0.000000 -0.000000
								CHANNELS 3 Zrotation Yrotation Xrotation
								JOINT LeftFingerBase
								{
									OFFSET 0.000000 0.000000 0.000000
									CHANNELS 3 Zrotation Yrotation Xrotation
									JOINT LeftHandIndex1
									{
										OFFSET 0.715260 -0.000000 -0.000000
										CHANNELS 3 Zrotation Yrotation Xrotation
										End Site
										{
											OFFSET 0.000000 0.000000 0.000000
										}
									}
								}
								JOINT LThumb
								{
									OFFSET 0.000000 0.000000 0.000000
									CHANNELS 3 Zrotation Yrotation Xrotation
									End Site
									{
										OFFSET 0.000000 0.000000 0.000000
									}
								}
							}
						}
					}
				}
				JOINT RightShoulder
				{
					OFFSET 0.000000 0.000000 0.000000
					CHANNELS 3 Zrotation Yrotation Xrotation
					JOINT RightArm
					{
						OFFSET -3.136600 1.374050 -0.404650
						CHANNELS 3 Zrotation Yrotation Xrotation
						JOINT RightForeArm
						{
							OFFSET -5.241900 -0.000000 -0.000000
							CHANNELS 3 Zrotation Yrotation Xrotation
							JOINT RightHand
							{
								OFFSET -3.444170 -0.000000 -0.000000
								CHANNELS 3 Zrotation Yrotation Xrotation
								JOINT RightFingerBase
								{
									OFFSET 0.000000 0.000000 0.000000
									CHANNELS 3 Zrotation Yrotation Xrotation
									JOINT RightHandIndex1
									{
										OFFSET -0.622530 -0.000000 -0.000000
										CHANNELS 3 Zrotation Yrotation Xrotation
										End Site
										{
											OFFSET 0.000000 0.000000 0.000000
										}
									}
								}
								JOINT RThumb
								{
									OFFSET 0.000000 0.000000 0.000000
									CHANNELS 3 Zrotation Yrotation Xrotation
									End Site
									{
										OFFSET 0.000000 0.000000 0.000000
									}
								}
							}
						}
					}
				}
			}
		}
	}
}
MOTION
Frames: 10
Frame Time: 0.033333
1.368723 16.853321 -3.641012 88.434393 -37.688016 -38.692398 -124.129829 -45.318822 74.482028 1.993089 20.143672 -54.832280 -42.213056 63.331398 -41.616103 -51.689561 27.962920 -5.390326 -0.671523 -0.173861 -92.438981 35.109871 -11.823284 -103.274696 -172.509980 -87.127504 138.149328 116.683004 -51.453727 -113.357982 -9.871974 -19.056866 -3.824095 -1.689427 -0.169198 -38.570739 -84.464338 78.234848 3.637216 -164.537823 75.110122 -169.759507 -169.332900 72.941328 175.041070 -1.934785 25.118747 20.433909 10.934691 5.597369 -12.269758 0.549319 -0.496889 0.723349 81.223753 43.028956 -52.094042 -130.529757 66.017338 -167.960804 -68.973118 40.801375 -110.527420 -9.299946 -7.734465 -6.357512 19.042615 23.723768 17.648076 -0.629493 -0.572094 0.605750 0.602216 0.534049 -0.579834 120.796403 67.906697 140.285813 28.733502 29.851068 125.349151 -27.201464 -23.818889 103.648327 -39.916791 8.880235 -83.439907 58.691602 8.622944 -110.831683 -0.656121 0.553551 -0.578663 -0.463617 -0.606800 -0.581688 
1.273432 16.954830 -2.887594 88.276104 -37.999512 -35.876604 -124.198933 -45.629655 73.240658 3.982534 21.155824 -51.782419 -53.540655 66.506061 -47.437930 -55.163988 31.164039 0.374294 0.141703 0.194165 -85.705048 33.428447 -11.408696 -103.811639 -164.864045 -86.424927 131.320634 116.328482 -49.260185 -107.340429 -15.031178 -15.360685 -0.820847 -1.737013 -0.030931 -28.926166 -77.923000 77.105833 9.663418 -158.484745 76.264364 -163.549616 -163.309730 73.131355 179.580450 -8.133178 16.103420 21.424070 13.267908 3.907027 -13.379751 0.597880 -0.662854 0.463172 82.432862 43.515640 -51.490766 -141.207820 68.416020 -176.176628 -64.100024 33.246970 -109.216490 -15.636390 -6.283323 -0.993372 13.101729 25.073359 12.833033 -0.688553 -0.469982 0.559775 0.593498 0.546591 -0.512943 121.990716 66.476222 138.885148 29.820713 33.164762 128.316972 -21.831729 -21.984618 107.711383 -43.522094 1.250439 -82.733545 58.281375 12.816364 -110.971624 -0.640701 0.606780 -0.627125 -0.679685 -0.678867 -0.468133 
1.146430 17.070692 -2.206506 87.971454 -37.752917 -34.589780 -123.359822 -46.104812 73.732261 8.083214 24.101379 -49.671151 -70.039317 67.739009 -49.948537 -43.743767 33.202627 9.839736 1.501182 0.664351 -75.828597 32.957964 -10.463718 -103.580681 -168.169556 -88.199751 133.210630 116.540596 -47.498849 -104.938790 -16.122335 -14.897466 -0.467972 -1.452420 0.020980 -23.355292 -68.195455 77.076383 19.222311 -157.448946 76.849139 -162.328681 -163.031000 74.020054 -179.824961 -13.192752 12.327242 21.048190 10.382202 -4.259398 -12.536932 0.676395 -0.446412 0.650585 80.353925 43.673163 -51.039427 -148.887738 68.407059 177.050810 -52.420594 20.225750 -102.346383 -17.030673 2.032395 5.567599 7.807098 22.882828 7.367766 -0.640429 -0.637772 0.693223 0.639314 0.579140 -0.730761 123.792223 65.863553 139.939109 31.706339 38.466855 132.237173 -18.312477 -19.215750 112.890134 -45.947364 0.047653 -89.083314 57.012308 5.758435 -101.141947 -0.674519 0.620649 -0.547284 -0.558808 -0.634657 -0.612486 
1.000030 17.181893 -1.601857 87.488022 -38.438924 -34.338396 -121.061183 -46.500739 71.385729 16.111289 26.672301 -43.954178 -90.708998 67.827760 -56.652673 -36.813557 38.896615 12.680059 2.939471 0.696701 -59.460567 32.680456 -9.908280 -102.822659 -176.983537 -89.253741 139.996145 116.341993 -47.341866 -104.239413 -18.337689 -15.201311 0.191914 -0.929204 -0.013892 -18.302567 -61.020801 77.401045 26.621125 -153.235341 77.604787 -158.706710 -160.296154 74.452379 -178.705059 -15.623869 11.948365 20.930877 12.344429 -4.100381 -7.123924 0.578375 -0.709975 0.505487 80.724643 43.870939 -48.579112 -150.156837 69.244711 178.079628 -40.070037 6.113346 -100.137412 -18.283589 4.611274 4.019020 1.998235 22.173440 6.019190 -0.740906 -0.543656 0.619785 0.658894 0.565392 -0.606299 124.052179 63.225864 139.535490 33.366937 45.905689 135.033395 -18.632914 -17.462860 120.527574 -45.322040 -1.669461 -84.779831 60.093806 3.575554 -94.751299 -0.601156 0.650947 -0.646207 -0.758660 -0.651427 -0.543062 
0.861560 17.286358 -1.046405 87.033286 -39.522192 -33.453102 -119.070326 -46.222000 69.791377 24.324859 30.409823 -40.051773 -106.517365 68.283810 -60.033252 -22.135920 42.069455 16.021050 4.350726 0.278793 -40.388529 30.706869 -9.924656 -102.343215 163.440810 -88.805106 157.417646 114.249197 -48.904694 -104.182768 -18.037373 -16.865683 -0.573002 -0.545035 -0.004380 -15.574163 -56.678144 77.378746 31.647490 -151.023202 77.988756 -156.807768 -162.459977 75.956415 179.285863 -15.233317 14.710104 22.148100 9.227482 -2.784777 -6.283560 0.735606 -0.489012 0.662007 79.829615 45.114635 -45.652914 -147.297665 72.177013 -176.068427 -25.369235 -2.190922 -103.687464 -17.409913 10.285173 7.851129 0.854071 16.824883 1.456964 -0.734501 -0.595814 0.676034 0.597891 0.635720 -0.694854 125.626409 61.017351 141.988670 38.085180 52.479348 140.501917 -20.096591 -20.081900 124.864094 -48.614322 4.800935 -85.579954 53.559848 -2.221394 -77.846306 -0.728384 0.725088 -0.569061 -0.539656 -0.597409 -0.616595 
0.720368 17.384367 -0.509059 86.307588 -40.326270 -31.828477 -115.760490 -45.596248 67.007473 30.776409 34.153565 -37.968037 -116.189446 70.911276 -59.635180 -15.628643 44.365975 8.067841 4.439210 -0.385148 -22.663265 26.677059 -12.384484 -100.909381 146.412129 -80.775101 172.498267 110.124699 -53.226631 -101.833158 -15.879911 -17.755716 -1.345557 0.160032 -0.267219 -12.798574 -51.402864 76.925309 36.435751 -151.257518 79.509550 -156.227011 -166.189379 76.766593 175.410371 -17.032958 16.072060 24.213316 9.088493 -3.766470 -3.050762 0.630998 -0.632561 0.597777 78.058319 46.422741 -40.915797 -138.029842 74.956791 -164.548944 -12.620433 -4.838462 -107.955952 -20.171035 14.200630 5.893763 -0.671184 16.678043 5.219154 -0.622889 -0.626684 0.687934 0.691420 0.558220 -0.682656 127.189985 57.897123 145.783800 43.157252 58.352321 143.423636 -22.350726 -22.702663 132.416240 -45.955083 6.994193 -75.325862 43.268575 -6.330475 -62.100424 -0.687845 0.750162 -0.623248 -0.772526 -0.594785 -0.612783 
0.581971 17.471813 0.020197 87.360759 -40.418242 -30.028712 -113.737943 -44.828702 65.059375 35.757821 36.148213 -38.325619 -118.591373 73.007682 -59.345086 -4.129071 40.742030 -0.426865 4.481911 -0.806718 -9.208668 24.819681 -12.850212 -97.599744 126.445245 -71.253246 -168.919172 105.627434 -55.400900 -98.611009 -13.230510 -17.827733 -3.545319 -0.296365 -0.024222 -10.310400 -48.257269 75.958752 40.551102 -152.057588 80.641060 -156.539186 -171.691182 76.857598 170.948943 -18.235302 8.261769 23.281102 5.010482 2.296470 -4.025013 0.635203 -0.603690 0.612290 76.419920 49.932948 -37.735622 -128.934030 78.380506 -152.422333 -5.427963 -4.549516 -114.267262 -13.887777 16.554307 5.661699 0.579779 17.168346 5.375799 -0.749005 -0.589658 0.670338 0.646671 0.623762 -0.731778 127.106643 57.897701 148.875853 48.071467 64.230154 146.316512 -25.532585 -26.204982 137.189039 -47.705827 11.936439 -64.004468 33.802760 -10.745055 -41.802744 -0.779822 0.748578 -0.624411 -0.648465 -0.561940 -0.667624 
0.456591 17.540877 0.541701 88.238229 -39.158426 -29.188583 -111.446796 -44.435290 64.522518 36.133035 37.816413 -40.497843 -112.894592 73.199899 -55.109267 0.518619 36.158740 -5.469446 3.400134 -0.801831 -0.616954 25.743817 -13.023444 -95.957806 109.443215 -67.364485 -152.488407 100.539291 -54.807751 -95.722989 -7.832047 -19.726838 -7.282228 -0.403250 0.082424 -8.922774 -47.567116 72.979490 43.077910 -157.099098 80.421702 -161.053357 -176.783953 75.953869 166.832470 -19.514736 7.122648 22.687637 2.559169 2.675183 -4.472699 0.649740 -0.639232 0.683981 76.295057 53.209513 -33.757808 -123.529407 81.471224 -144.652473 -4.523688 -4.532063 -119.881134 -13.163015 18.408300 5.006679 5.326581 16.366741 10.955928 -0.641582 -0.685075 0.739299 0.716337 0.661489 -0.700365 129.361584 57.629687 152.963073 55.470944 67.517530 148.987361 -27.347494 -29.134519 142.086267 -41.336420 7.781054 -56.586610 25.949239 -13.470923 -30.922232 -0.727593 0.654751 -0.697959 -0.706876 -0.700328 -0.688004 
0.354431 17.584662 1.059741 89.945544 -38.012613 -29.346210 -110.704852 -43.548656 64.768158 36.701634 38.212777 -42.592429 -105.537598 72.769699 -54.195203 3.297055 29.366086 -12.244367 2.937994 -0.708480 3.299860 26.460396 -13.102773 -96.252133 97.065589 -65.515969 -140.389773 96.561936 -54.066126 -94.251998 3.756472 -20.837937 -13.125376 -0.626242 0.263485 -10.366848 -47.741564 71.073991 45.313395 -158.360565 79.764436 -160.844233 -179.128878 73.732924 165.633240 -23.278941 1.019064 20.054925 5.174289 10.507015 -3.494005 0.709602 -0.660524 0.640178 74.352300 57.096585 -31.871323 -107.097310 84.939100 -126.291911 -9.633351 -3.497332 -125.777878 -6.684382 17.929226 9.019897 9.831447 13.347195 11.409334 -0.721395 -0.668139 0.697329 0.683065 0.740429 -0.712580 129.136691 58.540067 154.434586 63.337212 68.959753 154.229850 -30.066810 -30.467253 143.711246 -37.906843 12.489203 -43.665050 22.654971 -9.971412 -18.230118 -0.733698 0.714096 -0.713424 -0.688238 -0.656658 -0.652582 
0.275165 17.596653 1.583463 91.798254 -37.017597 -29.389532 -111.106477 -42.454191 65.900041 37.108719 38.064748 -44.810923 -98.159636 72.257428 -56.325106 5.419789 22.394943 -17.024060 2.071492 -0.340645 2.452476 27.291151 -13.632324 -98.423071 85.186205 -65.041229 -128.894742 94.407342 -55.067710 -95.670678 14.841005 -20.155632 -19.400844 -0.269747 0.230629 -15.623508 -50.738415 69.519372 44.154188 -166.415090 78.247246 -168.606739 175.813308 72.668668 162.456115 -23.178787 4.985113 17.763677 5.793540 2.778571 -8.892960 0.735607 -0.715718 0.727827 73.436377 60.278373 -29.367068 -41.053407 87.396456 -59.938923 -17.229057 0.409360 -127.767069 -3.461401 20.671077 11.709166 16.572485 10.724425 10.339879 -0.685929 -0.656813 0.708044 0.650908 0.643451 -0.749661 130.659214 59.461094 157.117644 72.129151 68.554524 159.526773 -31.036690 -28.828548 144.027462 -27.649914 17.542259 -31.389181 21.528667 -7.078749 -10.306518 -0.759295 0.672689 -0.747642 -0.730251 -0.682663 -0.691214 
